<svg width="14" height="14" viewBox="0 0 14 14" fill="none" xmlns="http://www.w3.org/2000/svg">
<path fill-rule="evenodd" clip-rule="evenodd" d="M7 14C10.866 14 14 10.866 14 7C14 3.13401 10.866 0 7 0C3.13401 0 0 3.13401 0 7C0 10.866 3.13401 14 7 14ZM7.00015 13C10.3139 13 13.0002 10.3137 13.0002 7.00002C13.0002 3.68631 10.3139 1.00002 7.00015 1.00002C3.68644 1.00002 1.00015 3.68631 1.00015 7.00002C1.00015 10.3137 3.68644 13 7.00015 13ZM9.25 4L10 4.75L7.75 7L10 9.25L9.25 10L7 7.75L4.75 10L4 9.25L6.25 7L4 4.75L4.75 4L7 6.25L9.25 4Z" fill="#EB5757"/>
</svg>
