<svg width="15" height="15" viewBox="0 0 15 15" fill="none" xmlns="http://www.w3.org/2000/svg">
<path d="M15 7.5C15 11.6421 11.6421 15 7.5 15C3.87158 15 0.844727 12.4234 0.149902 9H1.17383C1.85107 11.8667 4.42627 14 7.5 14C11.0898 14 14 11.0899 14 7.5C14 3.91015 11.0898 1 7.5 1C4.42627 1 1.85107 3.1333 1.17383 6H0.149902C0.844727 2.57664 3.87158 0 7.5 0C11.6421 0 15 3.35786 15 7.5Z" fill="black"/>
<path d="M0 7H9V8H0V7Z" fill="black"/>
<path d="M6.5 4.5L9.49424 7.49424L8.78713 8.20134L5.79289 5.20711L6.5 4.5Z" fill="black"/>
<path d="M5.79289 9.79289L8.78713 6.79866L9.49424 7.50576L6.5 10.5L5.79289 9.79289Z" fill="black"/>
</svg>
