<svg width="20" height="20" viewBox="0 0 20 20" fill="none" xmlns="http://www.w3.org/2000/svg">
<path fill-rule="evenodd" clip-rule="evenodd" d="M10 20C15.5228 20 20 15.5228 20 10C20 4.47715 15.5228 0 10 0C4.47715 0 0 4.47715 0 10C0 15.5228 4.47715 20 10 20ZM9.99998 19.1667C15.0626 19.1667 19.1666 15.0626 19.1666 10C19.1666 4.93739 15.0626 0.833332 9.99998 0.833332C4.93737 0.833332 0.833313 4.93739 0.833313 10C0.833313 15.0626 4.93737 19.1667 9.99998 19.1667Z" fill="#999999"/>
<path d="M9.67657 4.6985C9.73058 4.57423 9.8505 4.5 10 4.5C10.1495 4.5 10.2694 4.57423 10.3234 4.6985L11.3589 7.08073C11.5582 7.53911 12.001 7.83874 12.4935 7.87653L15.1813 8.08271C15.3481 8.0955 15.4468 8.19314 15.4839 8.30231C15.5202 8.40922 15.4995 8.52757 15.3859 8.62073L13.3381 10.2992C12.952 10.6157 12.7752 11.1216 12.8971 11.6103L13.5227 14.12C13.5532 14.2425 13.5075 14.355 13.3964 14.4322C13.2835 14.5107 13.1331 14.5278 12.9949 14.447L10.6938 13.1021C10.2669 12.8526 9.73313 12.8526 9.30624 13.1021L7.00514 14.447C6.86694 14.5278 6.7165 14.5107 6.60356 14.4322C6.49251 14.355 6.44677 14.2425 6.4773 14.12L7.10294 11.6103C7.22478 11.1216 7.048 10.6157 6.6619 10.2992L4.61411 8.62073C4.50045 8.52757 4.4798 8.40922 4.5161 8.30232C4.55317 8.19314 4.65188 8.0955 4.81869 8.08271L7.50645 7.87653C7.999 7.83874 8.44182 7.53911 8.64107 7.08073L9.67657 4.6985Z" stroke="#999999"/>
</svg>
