<svg width="40" height="26" viewBox="0 0 40 26" fill="none" xmlns="http://www.w3.org/2000/svg">
<path d="M16.8178 4.93262L20.7952 5.14407L14.4945 8.43573L13.2081 6.87965L16.8178 4.93262Z" stroke="#1ABC9C" stroke-width="2"/>
<path d="M38.9192 2.0181C39.0968 2.41712 39.0122 3.0132 38.1934 3.89581C37.4002 4.75086 36.1461 5.59726 34.7974 6.28211L34.7973 6.28205L34.7873 6.28729L28.7905 9.41813L28.4833 9.57851L28.3413 9.89457L22.578 22.7149C21.7681 23.1505 21.2453 23.4358 20.7407 23.7111L20.7377 23.7128L20.7376 23.7128C20.3546 23.9219 19.9626 24.1357 19.4413 24.4174L18.3031 16.3977L18.1044 14.9974L16.8505 15.6516L8.9584 19.7693L1.38819 13.2249L3.92451 11.9002L8.56696 14.4015L9.03573 14.6541L9.50696 14.4061L9.04128 13.5212C9.50696 14.4061 9.50702 14.4061 9.50717 14.406L9.50785 14.4057L9.5106 14.4042L9.52159 14.3984L9.56523 14.3755L9.7362 14.2856C9.88627 14.2068 10.107 14.0909 10.3895 13.9428C10.9546 13.6465 11.7668 13.2213 12.755 12.7056C14.7316 11.6742 17.4117 10.2811 20.2266 8.83445C25.8856 5.92612 32.0065 2.84426 34.1144 2.00444L34.1239 2.00067L34.1333 1.9967C34.2063 1.96588 35.8267 1.29846 37.2465 1.29846C37.8769 1.29846 38.2568 1.43545 38.4841 1.5713C38.7056 1.70366 38.8368 1.86762 38.9192 2.0181ZM8.65335 19.9285C8.65347 19.9284 8.6536 19.9283 8.65372 19.9283L8.65335 19.9285ZM0.727907 13.5697C0.72779 13.5698 0.727673 13.5699 0.727557 13.5699L0.727907 13.5697Z" stroke="#1ABC9C" stroke-width="2"/>
</svg>
