<svg width="16" height="10" viewBox="0 0 16 10" fill="none" xmlns="http://www.w3.org/2000/svg">
<path d="M15.9766 1.0625C15.9766 1.0625 15.8672 0.75 15.1875 0.835937L12.9375 0.851562C12.7656 0.828125 12.6406 0.898437 12.6406 0.898437C12.6406 0.898437 12.5078 0.96875 12.4453 1.14062C12.0781 2.08594 11.6094 2.89844 11.6094 2.89844C10.6094 4.60156 10.2031 4.69531 10.0391 4.58594C9.65625 4.34375 9.75781 3.60156 9.75781 3.07031C9.75781 1.41406 10.0078 0.726562 9.26563 0.546874C9.02344 0.492187 8.84375 0.453125 8.21094 0.445312C7.40625 0.437499 6.72656 0.445312 6.34375 0.632812C6.08594 0.757812 5.89063 1.03906 6.00781 1.05469C6.15625 1.07812 6.49219 1.14844 6.67188 1.39062C6.67188 1.39062 6.86719 1.71094 6.89844 2.41406C6.98438 4.35937 6.58594 4.60156 6.58594 4.60156C6.28125 4.76562 5.75 4.49219 4.96875 2.88281C4.96875 2.88281 4.51563 2.08594 4.16406 1.21094C4.10156 1.04687 3.97656 0.960938 3.97656 0.960938C3.97656 0.960938 3.83594 0.851562 3.63281 0.820312L1.49219 0.835937C1.16406 0.835937 1.04688 0.984374 1.04688 0.984374C1.04688 0.984374 0.929687 1.10937 1.03906 1.36719C2.71094 5.29687 4.61719 7.26562 4.61719 7.26562C4.61719 7.26562 6.35938 9.08594 8.33594 8.96094H9.23438C9.50781 8.9375 9.64844 8.78906 9.64844 8.78906C9.64844 8.78906 9.77344 8.64844 9.76563 8.39062C9.75 7.1875 10.3125 7.00781 10.3125 7.00781C10.8594 6.83594 11.5625 8.17187 12.3125 8.6875C12.3125 8.6875 12.8828 9.07813 13.3125 8.99219L15.3125 8.96094C16.3672 8.95312 15.8672 8.07812 15.8672 8.07812C15.8281 8.00781 15.5781 7.46875 14.375 6.35156C13.125 5.1875 13.2891 5.375 14.8047 3.35937C15.7266 2.13281 16.0938 1.38281 15.9766 1.0625Z" fill="white"/>
</svg>
