<svg width="23" height="37" viewBox="0 0 23 37" fill="none" xmlns="http://www.w3.org/2000/svg">
<mask id="path-1-outside-1" maskUnits="userSpaceOnUse" x="-0.314941" y="0" width="23" height="37" fill="black">
<rect fill="white" x="-0.314941" width="23" height="37"/>
<path fill-rule="evenodd" clip-rule="evenodd" d="M20.6851 32.4514L6.99987 18.5L20.6851 4.54863L18.1851 2L1.99987 18.5L18.1851 35L20.6851 32.4514Z"/>
</mask>
<path fill-rule="evenodd" clip-rule="evenodd" d="M20.6851 32.4514L6.99987 18.5L20.6851 4.54863L18.1851 2L1.99987 18.5L18.1851 35L20.6851 32.4514Z" fill="white"/>
<path d="M20.6851 32.4514L21.3989 31.7511L22.0858 32.4514L21.3989 33.1516L20.6851 32.4514ZM6.99987 18.5L6.28599 19.2003L5.59909 18.5L6.28599 17.7997L6.99987 18.5ZM20.6851 4.54863L21.3989 3.84836L22.0858 4.54863L21.3989 5.24889L20.6851 4.54863ZM18.1851 2L17.4712 1.29974L18.1851 0.571966L18.8989 1.29974L18.1851 2ZM1.99987 18.5L1.28599 19.2003L0.599087 18.5L1.28599 17.7997L1.99987 18.5ZM18.1851 35L18.8989 35.7003L18.1851 36.428L17.4712 35.7003L18.1851 35ZM19.9712 33.1516L6.28599 19.2003L7.71376 17.7997L21.3989 31.7511L19.9712 33.1516ZM6.28599 17.7997L19.9712 3.84836L21.3989 5.24889L7.71376 19.2003L6.28599 17.7997ZM18.8989 1.29974L21.3989 3.84836L19.9712 5.24889L17.4712 2.70026L18.8989 1.29974ZM1.28599 17.7997L17.4712 1.29974L18.8989 2.70026L2.71376 19.2003L1.28599 17.7997ZM17.4712 35.7003L1.28599 19.2003L2.71376 17.7997L18.8989 34.2997L17.4712 35.7003ZM21.3989 33.1516L18.8989 35.7003L17.4712 34.2997L19.9712 31.7511L21.3989 33.1516Z" fill="black" fill-opacity="0.2" mask="url(#path-1-outside-1)"/>
</svg>
