<svg width="14" height="10" viewBox="0 0 14 10" fill="none" xmlns="http://www.w3.org/2000/svg">
<path d="M5.55469 6.8125V2.88281L9.33594 4.85937L5.55469 6.8125ZM7 0.0781249C4.05469 0.0781249 2.10156 0.21875 2.10156 0.21875C1.82813 0.25 1.22656 0.25 0.695313 0.8125C0.695313 0.8125 0.265625 1.23437 0.140625 2.20312C-0.0078125 3.33594 0 4.46875 0 4.46875V5.53125C0 5.53125 -0.0078125 6.66406 0.140625 7.79687C0.265625 8.75781 0.695313 9.1875 0.695313 9.1875C1.22656 9.74219 1.92969 9.72656 2.24219 9.78125C2.24219 9.78125 3.35938 9.89062 7 9.92187C9.94531 9.92187 11.8984 9.77344 11.8984 9.77344C12.1719 9.74219 12.7734 9.74219 13.3047 9.1875C13.3047 9.1875 13.7344 8.75781 13.8594 7.79687C14.0078 6.66406 14 5.53125 14 5.53125V4.46875C14 4.46875 14.0078 3.33594 13.8594 2.20312C13.7344 1.23437 13.3047 0.8125 13.3047 0.8125C12.7734 0.25 12.1719 0.25 11.8984 0.21875C11.8984 0.21875 9.94531 0.0781249 7 0.0781249Z" fill="white"/>
</svg>
