<svg width="20" height="20" viewBox="0 0 20 20" fill="none" xmlns="http://www.w3.org/2000/svg">
<path fill-rule="evenodd" clip-rule="evenodd" d="M20 10C20 15.5228 15.5228 20 10 20C4.47715 20 0 15.5228 0 10C0 4.47715 4.47715 0 10 0C15.5228 0 20 4.47715 20 10ZM19.1666 10C19.1666 15.0626 15.0626 19.1667 9.99998 19.1667C4.93737 19.1667 0.833313 15.0626 0.833313 10C0.833313 4.93739 4.93737 0.833334 9.99998 0.833334C15.0626 0.833334 19.1666 4.93739 19.1666 10ZM12.9998 14L13.9998 13L11 10.0001L14 7L13 6L10 9.0001L6.99998 6L6 7L9.00002 10.0001L6.0002 13L7.00017 14L10 11.0001L12.9998 14Z" fill="#999999"/>
</svg>
