<svg width="23" height="37" viewBox="0 0 23 37" fill="none" xmlns="http://www.w3.org/2000/svg">
<mask id="path-1-outside-1" maskUnits="userSpaceOnUse" x="0.314819" y="0" width="23" height="37" fill="black">
<rect fill="white" x="0.314819" width="23" height="37"/>
<path fill-rule="evenodd" clip-rule="evenodd" d="M2.31482 32.4514L16 18.5L2.31482 4.54863L4.81482 2L21 18.5L4.81482 35L2.31482 32.4514Z"/>
</mask>
<path fill-rule="evenodd" clip-rule="evenodd" d="M2.31482 32.4514L16 18.5L2.31482 4.54863L4.81482 2L21 18.5L4.81482 35L2.31482 32.4514Z" fill="white"/>
<path d="M2.31482 32.4514L1.60094 31.7511L0.914033 32.4514L1.60094 33.1516L2.31482 32.4514ZM16 18.5L16.7139 19.2003L17.4008 18.5L16.7139 17.7997L16 18.5ZM2.31482 4.54863L1.60094 3.84836L0.914032 4.54863L1.60093 5.24889L2.31482 4.54863ZM4.81482 2L5.5287 1.29974L4.81482 0.571966L4.10094 1.29974L4.81482 2ZM21 18.5L21.7139 19.2003L22.4008 18.5L21.7139 17.7997L21 18.5ZM4.81482 35L4.10093 35.7003L4.81482 36.428L5.5287 35.7003L4.81482 35ZM3.0287 33.1516L16.7139 19.2003L15.2861 17.7997L1.60094 31.7511L3.0287 33.1516ZM16.7139 17.7997L3.0287 3.84836L1.60093 5.24889L15.2861 19.2003L16.7139 17.7997ZM4.10094 1.29974L1.60094 3.84836L3.0287 5.24889L5.5287 2.70026L4.10094 1.29974ZM21.7139 17.7997L5.5287 1.29974L4.10094 2.70026L20.2861 19.2003L21.7139 17.7997ZM5.5287 35.7003L21.7139 19.2003L20.2861 17.7997L4.10094 34.2997L5.5287 35.7003ZM1.60094 33.1516L4.10093 35.7003L5.5287 34.2997L3.0287 31.7511L1.60094 33.1516Z" fill="black" fill-opacity="0.2" mask="url(#path-1-outside-1)"/>
</svg>
