<svg width="16" height="14" viewBox="0 0 16 14" fill="none" xmlns="http://www.w3.org/2000/svg">
<path d="M14.9286 2.903C14.2143 2.0068 13.2441 1.29883 12.0179 0.779287C10.7918 0.259741 9.45242 -6.8199e-09 8.00002 -6.8199e-09C6.54764 -6.8199e-09 5.20831 0.259741 3.98214 0.779287C2.75596 1.29883 1.78575 2.00667 1.07144 2.903C0.357105 3.79926 0 4.776 0 5.83332C0 6.74474 0.26926 7.59874 0.807998 8.39472C1.34674 9.19074 2.08324 9.85924 3.01787 10.4C2.95232 10.643 2.87495 10.8738 2.78563 11.0928C2.69635 11.3115 2.61601 11.4908 2.54458 11.6306C2.47309 11.7703 2.37646 11.9253 2.25434 12.0953C2.13241 12.2655 2.04015 12.3856 1.97764 12.4555C1.91518 12.5254 1.81252 12.6407 1.66957 12.8018C1.52681 12.9628 1.43449 13.0678 1.39286 13.1164C1.38683 13.1195 1.36306 13.1466 1.32141 13.1986C1.27978 13.2501 1.25889 13.2758 1.25889 13.2758L1.20532 13.3578C1.17552 13.4032 1.16213 13.4321 1.16507 13.4441C1.16807 13.4564 1.16213 13.4867 1.14725 13.5352C1.13233 13.584 1.13386 13.6204 1.15169 13.6447V13.6539C1.17552 13.7571 1.22308 13.8407 1.29451 13.9045C1.36594 13.9681 1.44643 14 1.53562 14H1.58031C1.96732 13.9513 2.30656 13.8847 2.59818 13.7995C4.15776 13.3925 5.52686 12.6572 6.70538 11.5937C7.15177 11.6423 7.58334 11.6666 7.99995 11.6666C9.45233 11.6666 10.7917 11.4069 12.0179 10.8872C13.244 10.3676 14.2143 9.65987 14.9285 8.76364C15.6429 7.86745 16 6.89061 16 5.83329C16 4.77613 15.6429 3.79926 14.9286 2.903ZM13.9241 8.15765C13.3019 8.87455 12.4626 9.44431 11.4061 9.86655C10.3495 10.2887 9.21406 10.5 7.9998 10.5C7.63675 10.5 7.24987 10.4757 6.83917 10.427L6.33023 10.3725L5.94629 10.7189C5.21426 11.3753 4.39572 11.8947 3.49096 12.2776C3.76473 11.7855 3.97307 11.2628 4.11598 10.71L4.35703 9.83485L3.58028 9.37928C2.80646 8.92937 2.20684 8.39622 1.78115 7.7794C1.35552 7.16277 1.14281 6.51396 1.14281 5.83345C1.14281 5.00094 1.45381 4.22625 2.0758 3.50922C2.69798 2.79225 3.53715 2.22255 4.59374 1.80025C5.65033 1.37791 6.78563 1.16657 7.99998 1.16657C9.21425 1.16657 10.3495 1.37782 11.406 1.80012C12.4625 2.22245 13.3018 2.79212 13.924 3.50909C14.5461 4.22612 14.857 5.00085 14.857 5.83329C14.857 6.66573 14.5461 7.44061 13.9241 8.15765Z" fill="#1ABC9C"/>
</svg>
