<svg width="40" height="40" viewBox="0 0 40 40" fill="none" xmlns="http://www.w3.org/2000/svg">
<path d="M39.7992 18.6336H37.8801V9.80539C37.8801 7.68891 36.1582 5.96709 34.0418 5.96709H31.4425L28.7825 1.18455C28.3771 0.453659 27.6056 0 26.7689 0C26.3789 0 25.992 0.100574 25.6504 0.290136L15.442 5.96697H4.03911C1.92263 5.96697 0.200806 7.68879 0.200806 9.80527V36.1616C0.200806 38.2781 1.92263 39.9999 4.03911 39.9999H34.0418C36.1582 39.9999 37.8801 38.2781 37.8801 36.1616V28.4212H39.7992V18.6336ZM34.0418 7.50234C35.2239 7.50234 36.1897 8.40046 36.3194 9.54965H33.4345L32.2968 7.50234H34.0418ZM26.3973 1.632C26.7573 1.43014 27.2418 1.57132 27.4405 1.9299L31.678 9.54894H12.1595L26.3973 1.632ZM36.3447 36.1616C36.3447 37.4313 35.3114 38.4646 34.0416 38.4646H4.03911C2.76939 38.4646 1.73606 37.4313 1.73606 36.1616V9.80539C1.73606 8.53567 2.76939 7.50234 4.03911 7.50234H12.6814L8.99974 9.54978H4.51893C4.09441 9.54978 3.75124 9.89366 3.75124 10.3175C3.75124 10.7413 4.09441 11.0851 4.51893 11.0851H6.23848H34.2882H36.3447V18.6343H30.7308C28.1238 18.6343 26.002 20.7562 26.002 23.3631V23.6932C26.002 26.3003 28.1239 28.422 30.7308 28.422H36.3447V36.1616ZM38.2638 26.8859H37.8801H30.7308C28.9698 26.8859 27.5373 25.4535 27.5373 23.6924V23.3623C27.5373 21.6012 28.9697 20.1687 30.7308 20.1687H37.8801H38.2638V26.8859ZM33.0821 23.5904C33.0821 24.527 32.3236 25.2853 31.3872 25.2853C30.4506 25.2853 29.6922 24.5269 29.6922 23.5904C29.6922 22.6539 30.4507 21.8954 31.3872 21.8954C32.3238 21.8953 33.0821 22.6545 33.0821 23.5904Z" fill="#1ABC9C"/>
</svg>
