<svg width="15" height="16" viewBox="0 0 15 16" fill="none" xmlns="http://www.w3.org/2000/svg">
<path d="M14.2857 12H13.5715C13.3742 12 13.2143 12.1493 13.2143 12.3333V14.6667H1.42858V1.33334H13.2143V3.66669C13.2143 3.85078 13.3742 4.00003 13.5715 4.00003H14.2857C14.483 4.00003 14.6429 3.85078 14.6429 3.66669V1.33334C14.6428 0.596969 14.0033 0 13.2143 0H1.42858C0.639609 0 0 0.596969 0 1.33334V14.6667C0 15.4031 0.639609 16 1.42858 16H13.2143C14.0033 16 14.6429 15.4031 14.6429 14.6667V12.3333C14.6428 12.1492 14.483 12 14.2857 12Z" fill="black"/>
<path d="M14.8839 7.75417L10.5982 4.08752C10.4936 3.99864 10.3419 3.97424 10.2131 4.02827C10.0834 4.08133 9.9997 4.20111 9.9997 4.33327V4.99996C9.9997 5.09436 10.0426 5.18452 10.1179 5.24768L12.6007 7.3333H4.64255C4.44514 7.3333 4.2854 7.48239 4.2854 7.66664V8.3333C4.2854 8.51755 4.44514 8.66664 4.64255 8.66664H12.6007L10.1179 10.7523C10.0426 10.8154 9.9997 10.9056 9.9997 11V11.6666C9.9997 11.7988 10.0834 11.9186 10.2131 11.9716C10.2592 11.9909 10.3084 12 10.3569 12C10.4444 12 10.5309 11.9697 10.5982 11.9124L14.8839 8.24574C14.9578 8.18258 14.9997 8.09339 14.9997 7.99996C14.9997 7.90652 14.9578 7.81733 14.8839 7.75417Z" fill="black"/>
</svg>
