<svg width="17" height="16" viewBox="0 0 17 16" fill="none" xmlns="http://www.w3.org/2000/svg">
<path d="M7.85262 0.921005C8.09027 0.359665 8.90973 0.359665 9.14738 0.921006L10.6143 4.38606C10.8612 4.96928 11.4165 5.3622 12.0474 5.4119L15.8551 5.7118C16.4888 5.7617 16.7135 6.51688 16.2571 6.90098L13.356 9.3424C12.8709 9.75071 12.6559 10.3951 12.8056 11.0116L13.6919 14.6621C13.829 15.2266 13.1941 15.7258 12.6426 15.3948L9.38268 13.4386C8.84037 13.1132 8.15963 13.1132 7.61732 13.4386L4.35743 15.3948C3.80591 15.7258 3.17102 15.2266 3.3081 14.6621L4.19441 11.0116C4.34412 10.3951 4.12912 9.75071 3.64395 9.3424L0.742914 6.90098C0.286511 6.51689 0.511242 5.7617 1.14489 5.7118L4.95256 5.4119C5.58353 5.3622 6.13876 4.96928 6.38567 4.38606L7.85262 0.921005Z" stroke="#999999"/>
</svg>
