<svg width="24" height="24" viewBox="0 0 24 24" fill="none" xmlns="http://www.w3.org/2000/svg">
<path d="M12.0079 6.00422H9.00594V9.00631H6.00397V12.0084H9.00594V15.0105H12.0079V12.0084H15.0099V9.00631H12.0079V6.00422ZM23.4591 20.8467L19.1227 16.5116C20.3115 14.8079 21.014 12.741 21.014 10.5074C21.014 4.70432 16.3098 0 10.507 0C4.70416 0 0 4.70432 0 10.5074C0 16.3105 4.70412 21.0148 10.507 21.0148C12.7405 21.0148 14.8073 20.3123 16.5109 19.1235L20.8458 23.4585C21.5678 24.1805 22.7371 24.1805 23.4591 23.4585C24.1811 22.7365 24.1795 21.5687 23.4591 20.8467ZM10.507 18.0127C6.36271 18.0127 3.00201 14.6518 3.00201 10.5074C3.00201 6.36297 6.36275 3.00213 10.507 3.00213C14.6512 3.00213 18.0119 6.36301 18.0119 10.5074C18.0119 14.6518 14.6512 18.0127 10.507 18.0127Z" fill="#16A085"/>
</svg>
