<svg width="20" height="20" viewBox="0 0 20 20" fill="none" xmlns="http://www.w3.org/2000/svg">
<path fill-rule="evenodd" clip-rule="evenodd" d="M10 20C15.5228 20 20 15.5228 20 10C20 4.47715 15.5228 0 10 0C4.47715 0 0 4.47715 0 10C0 15.5228 4.47715 20 10 20ZM9.99998 19.1667C15.0626 19.1667 19.1666 15.0626 19.1666 10C19.1666 4.93739 15.0626 0.833332 9.99998 0.833332C4.93737 0.833332 0.833313 4.93739 0.833313 10C0.833313 15.0626 4.93737 19.1667 9.99998 19.1667Z" fill="#FE8500"/>
<path d="M9.21801 4.49918C9.50732 3.83361 10.4927 3.83361 10.782 4.49918L11.8175 6.8814C11.9394 7.16199 12.2152 7.3537 12.5318 7.37799L15.2196 7.58417C15.9705 7.64178 16.275 8.53848 15.7028 9.00743L13.6551 10.6859C13.4139 10.8836 13.3085 11.1938 13.3822 11.4894L14.0078 13.9991C14.1826 14.7002 13.3855 15.2544 12.7426 14.8787L10.4415 13.5338C10.1704 13.3754 9.82957 13.3754 9.55853 13.5338L7.25743 14.8787C6.61453 15.2544 5.81736 14.7002 5.99215 13.9991L6.61779 11.4894C6.69147 11.1938 6.58614 10.8836 6.34494 10.6859L4.29715 9.00743C3.72502 8.53848 4.02951 7.64178 4.78045 7.58417L7.46821 7.37799C7.78479 7.3537 8.06055 7.16199 8.18252 6.8814L9.21801 4.49918Z" fill="#FE8500"/>
</svg>
