<svg width="31" height="31" viewBox="0 0 31 31" fill="none" xmlns="http://www.w3.org/2000/svg">
<path fill-rule="evenodd" clip-rule="evenodd" d="M19.7583 18.3482C22.5903 14.8144 22.3682 9.64046 19.0918 6.36397C15.5771 2.84932 9.87891 2.84932 6.36377 6.36397C2.84912 9.87874 2.84912 15.5772 6.36377 19.092C9.63916 22.367 14.8101 22.5903 18.3438 19.7619L23.4609 24.8791L24.875 23.4648L19.7583 18.3482ZM17.6777 7.77815C20.4116 10.5119 20.4116 14.944 17.6777 17.6778C14.9443 20.4113 10.5122 20.4113 7.77832 17.6777C5.04492 14.944 5.04492 10.5119 7.77832 7.77827C10.5122 5.04463 14.9443 5.04463 17.6777 7.77815Z" fill="#333333"/>
</svg>
