<svg width="19" height="21" viewBox="0 0 19 21" fill="none" xmlns="http://www.w3.org/2000/svg">
<path d="M18.4853 2.01469C17.8995 1.4289 16.9497 1.4289 16.3639 2.01469L1.51469 16.8639C0.928902 17.4497 0.928901 18.3995 1.51469 18.9853C2.10048 19.571 3.05022 19.571 3.63601 18.9853L18.4853 4.13601C19.071 3.55022 19.071 2.60048 18.4853 2.01469Z" fill="black"/>
<path d="M1.51472 2.01472C2.1005 1.42893 3.05025 1.42893 3.63604 2.01472L18.4853 16.864C19.0711 17.4498 19.0711 18.3995 18.4853 18.9853C17.8995 19.5711 16.9497 19.5711 16.364 18.9853L1.51472 4.13604C0.928931 3.55026 0.928931 2.60051 1.51472 2.01472Z" fill="black"/>
</svg>
