<svg width="20" height="20" viewBox="0 0 20 20" fill="none" xmlns="http://www.w3.org/2000/svg">
<g clip-path="url(#clip0)">
<path d="M18.9748 1.17322H12.7391C12.173 1.17322 11.7135 1.63269 11.7135 2.19882V8.43449C11.7135 9.00064 12.173 9.46009 12.7391 9.46009H15.7236C15.6846 11.0929 15.3052 12.3995 14.5872 13.382C14.0211 14.1574 13.1637 14.7994 12.0171 15.306C11.4899 15.5378 11.2622 16.1614 11.5084 16.6824L12.2468 18.2413C12.4848 18.7418 13.0735 18.9613 13.5822 18.7418C14.9401 18.1552 16.0867 17.4126 17.022 16.5101C18.1625 15.4086 18.944 14.1656 19.3666 12.7789C19.7891 11.3923 20.0004 9.50111 20.0004 7.1012V2.19882C20.0004 1.63271 19.5409 1.17322 18.9748 1.17322Z" fill="black" fill-opacity="0.2"/>
<path d="M2.17504 18.7377C3.51653 18.1531 4.657 17.4106 5.5985 16.5101C6.74923 15.4086 7.53484 14.1697 7.95739 12.7933C8.37994 11.4169 8.59119 9.51958 8.59119 7.1012V2.19882C8.59119 1.63269 8.13174 1.17322 7.56559 1.17322H1.32992C0.763789 1.17322 0.304319 1.63269 0.304319 2.19882V8.43449C0.304319 9.00064 0.763789 9.46009 1.32992 9.46009H4.31443C4.27545 11.0929 3.89598 12.3995 3.17806 13.382C2.61193 14.1574 1.75452 14.7994 0.607898 15.306C0.0807375 15.5378 -0.146946 16.1614 0.0991984 16.6824L0.835582 18.2372C1.07354 18.7377 1.66634 18.9592 2.17504 18.7377Z" fill="black" fill-opacity="0.2"/>
</g>
<defs>
<clipPath id="clip0">
<rect width="20" height="20" fill="white"/>
</clipPath>
</defs>
</svg>
