<svg width="16" height="16" viewBox="0 0 16 16" fill="none" xmlns="http://www.w3.org/2000/svg">
<path d="M8 1C11.8594 1 15 4.14062 15 8C15 11.8594 11.8594 15 8 15C4.14062 15 1 11.8594 1 8C1 4.14062 4.14062 1 8 1ZM8 0C3.58203 0 0 3.58203 0 8C0 12.418 3.58203 16 8 16C12.418 16 16 12.418 16 8C16 3.58203 12.418 0 8 0ZM12.46 10.6748L12.415 10.5381C12.3096 10.2237 11.9619 9.89553 11.6416 9.80762L10.459 9.48438C10.1387 9.39747 9.68166 9.51466 9.44634 9.75L9.01859 10.1777C7.46391 9.75684 6.24419 8.53712 5.82425 6.98244L6.252 6.55469C6.48637 6.32031 6.60356 5.86328 6.51666 5.542L6.19434 4.35938C6.10744 4.03906 5.77734 3.69141 5.46291 3.58594L5.32812 3.541C5.01269 3.43553 4.5625 3.54197 4.32812 3.77734L3.6875 4.41797C3.57325 4.53125 3.5 4.85644 3.5 4.85744C3.4785 6.89066 4.27541 8.84866 5.71291 10.2871C7.1465 11.7207 9.09769 12.5167 11.124 12.499C11.1348 12.499 11.4697 12.4278 11.584 12.3135L12.2246 11.6728C12.459 11.4394 12.5644 10.9893 12.46 10.6748Z" fill="#16A085"/>
</svg>
