<svg width="31" height="40" viewBox="0 0 31 40" fill="none" xmlns="http://www.w3.org/2000/svg">
<path d="M15.5 40C15.1874 40 14.8889 39.8712 14.6723 39.6432C14.074 39.0032 -7.33111e-09 23.9127 -7.33111e-09 15.5812C-7.33111e-09 6.9895 6.95309 0 15.5 0C24.0456 0 31 6.9895 31 15.5812C31 23.914 16.9273 39.0044 16.3277 39.6432C16.1124 39.8712 15.8126 40 15.5 40ZM15.5 2.28476C8.20739 2.28476 2.27414 8.24908 2.27414 15.5799C2.27414 21.3484 11.1567 32.3678 15.5 37.1743C19.8446 32.3665 28.7259 21.3497 28.7259 15.5799C28.7271 8.24908 22.7926 2.28476 15.5 2.28476Z" fill="#1ABC9C"/>
<path d="M15.5 20.4572C11.8845 20.4572 8.94412 17.5015 8.94412 13.867C8.94412 10.2338 11.8845 7.27673 15.5 7.27673C19.1143 7.27673 22.056 10.2338 22.056 13.867C22.056 17.5015 19.1156 20.4572 15.5 20.4572ZM15.5 9.56278C13.1375 9.56278 11.217 11.4934 11.217 13.867C11.217 16.2419 13.1375 18.1725 15.5 18.1725C17.8613 18.1725 19.7818 16.2419 19.7818 13.867C19.7818 11.4934 17.8613 9.56278 15.5 9.56278Z" fill="#1ABC9C"/>
</svg>
