<svg width="31" height="40" viewBox="0 0 31 40" fill="none" xmlns="http://www.w3.org/2000/svg">
<path d="M15.5 40C15.1874 40 14.8889 39.8712 14.6723 39.6432C14.074 39.0032 -7.33111e-09 23.9127 -7.33111e-09 15.5812C-7.33111e-09 6.9895 6.95309 0 15.5 0C24.0456 0 31 6.9895 31 15.5812C31 23.914 16.9273 39.0044 16.3277 39.6432C16.1124 39.8712 15.8126 40 15.5 40ZM15.5 2.28476C8.20739 2.28476 2.27414 8.24908 2.27414 15.5799C2.27414 21.3484 11.1567 32.3678 15.5 37.1743C19.8446 32.3665 28.7259 21.3497 28.7259 15.5799C28.7271 8.24908 22.7926 2.28476 15.5 2.28476Z" fill="#1ABC9C"/>
<path d="M15.5 20.4572C11.8845 20.4572 8.94409 17.5014 8.94409 13.8669C8.94409 10.2337 11.8845 7.27667 15.5 7.27667C19.1143 7.27667 22.0559 10.2337 22.0559 13.8669C22.0559 17.5014 19.1156 20.4572 15.5 20.4572ZM15.5 9.56272C13.1375 9.56272 11.2169 11.4933 11.2169 13.8669C11.2169 16.2418 13.1375 18.1724 15.5 18.1724C17.8613 18.1724 19.7818 16.2418 19.7818 13.8669C19.7818 11.4933 17.8613 9.56272 15.5 9.56272Z" fill="#1ABC9C"/>
</svg>
