<svg width="22" height="22" viewBox="0 0 22 22" fill="none" xmlns="http://www.w3.org/2000/svg">
<path d="M10.9998 0C4.92486 0 0 4.92497 0 10.9999C0 17.0747 4.92486 22 10.9998 22C17.0748 22 22 17.0747 22 10.9999C22 4.92482 17.0748 0 10.9998 0ZM11.0333 16.1894V16.1893H10.9662H6.26746C6.26746 12.7532 9.28533 12.754 9.95502 11.8555L10.0317 11.4458C9.09077 10.9689 8.42658 9.81936 8.42658 8.47485C8.42658 6.70354 9.57881 5.26737 10.9998 5.26737C12.4208 5.26737 13.5731 6.70354 13.5731 8.47485C13.5731 9.80792 12.9207 10.9503 11.9923 11.4347L12.0796 11.9003C12.8143 12.7552 15.7318 12.8109 15.7318 16.1894H11.0333Z" fill="white"/>
</svg>
