<svg width="23" height="17" viewBox="0 0 23 17" fill="none" xmlns="http://www.w3.org/2000/svg">
<path d="M0.28528 3.22037C0.28528 3.22037 1.68466 2.05718 2.86426 2.7059C3.77254 3.21004 9.54219 6.00487 12.1163 7.24973L15.7611 5.23786C15.3653 4.56098 15.2992 3.77802 15.5122 3.02322C15.7815 2.06939 16.4943 1.16531 17.5466 0.584192C19.438 -0.462579 21.7116 -0.0645243 22.6189 1.47324C23.0235 2.152 23.0896 2.9406 22.8776 3.70104C22.6082 4.65487 21.8954 5.55988 20.8432 6.14382C20.3784 6.39729 19.8941 6.56534 19.4127 6.65171V6.65265C19.4088 6.65359 19.4049 6.65359 19.401 6.65547C19.3631 6.6611 19.3194 6.66955 19.2775 6.67424C16.2765 7.10516 14.742 7.92286 13.9971 8.49928C14.742 9.07759 16.2765 9.89342 19.2775 10.3253C19.3194 10.33 19.3631 10.3375 19.401 10.3431C19.4049 10.345 19.4088 10.345 19.4127 10.3469C19.8931 10.4332 20.3774 10.6013 20.8432 10.8557C21.8954 11.4396 22.6073 12.3437 22.8776 13.2985C23.0906 14.057 23.0235 14.8456 22.6189 15.5281C21.7107 17.0631 19.438 17.463 17.5456 16.4163C16.4934 15.8333 15.7815 14.9292 15.5112 13.9735C15.2982 13.2196 15.3653 12.4385 15.7601 11.7607L12.1153 9.74978C9.54219 10.9937 3.77157 13.7913 2.86329 14.2927C1.68369 14.9414 0.284307 13.7791 0.284307 13.7791L9.85143 8.49928L0.28528 3.22037ZM17.3141 4.40045C17.7284 5.09704 18.9382 5.21064 19.9563 4.64829C20.5544 4.31971 21.0046 3.79586 21.1583 3.25135C21.2254 3.0082 21.2692 2.65239 21.0727 2.32662C20.6604 1.63096 19.4506 1.51737 18.4325 2.07878C17.8247 2.41205 17.388 2.92182 17.2324 3.47572C17.1624 3.71606 17.1226 4.07374 17.3141 4.40045ZM17.2324 13.5219C17.388 14.0767 17.8247 14.5856 18.4325 14.9198C19.4506 15.4831 20.6604 15.3685 21.0727 14.671C21.2682 14.3443 21.2244 13.9894 21.1583 13.7491C21.0046 13.2027 20.5544 12.6789 19.9563 12.3484C18.9382 11.787 17.7284 11.9006 17.3141 12.5981C17.1226 12.9267 17.1624 13.2816 17.2324 13.5219Z" fill="black"/>
</svg>
