<svg width="16" height="16" viewBox="0 0 16 16" fill="none" xmlns="http://www.w3.org/2000/svg">
<path d="M15.181 6.32045L14.058 6.12993C13.941 5.75225 13.7906 5.38793 13.6068 5.04032L14.2686 4.11448C14.5493 3.72008 14.5059 3.18195 14.1616 2.84103L13.1656 1.845C12.9784 1.65782 12.7311 1.55421 12.467 1.55421C12.2598 1.55421 12.0626 1.61771 11.8955 1.73804L10.9663 2.39983C10.6053 2.20932 10.2276 2.05222 9.83658 1.93524L9.64941 0.825569C9.56919 0.347608 9.15808 0 8.67344 0H7.2663C6.78166 0 6.37055 0.347608 6.29033 0.825569L6.09647 1.96198C5.72213 2.07896 5.35781 2.23271 5.01021 2.41989L4.09106 1.75809C3.92394 1.63777 3.7234 1.57426 3.51617 1.57426C3.25212 1.57426 3.00144 1.67788 2.81761 1.86505L1.81825 2.86108C1.47733 3.20201 1.43053 3.74013 1.71129 4.13453L2.37976 5.07374C2.19593 5.42469 2.04887 5.78901 1.93523 6.1667L0.825564 6.35387C0.347606 6.43409 0 6.84521 0 7.32985V8.737C0 9.22164 0.347606 9.63276 0.825564 9.71297L1.96197 9.90683C2.07895 10.2812 2.2327 10.6455 2.41987 10.9931L1.76143 11.9089C1.48067 12.3033 1.52412 12.8414 1.86838 13.1824L2.86441 14.1784C3.05158 14.3656 3.29891 14.4692 3.56296 14.4692C3.77019 14.4692 3.96739 14.4057 4.13451 14.2854L5.07371 13.6169C5.41129 13.794 5.76558 13.9377 6.1299 14.0514L6.31707 15.1744C6.39729 15.6524 6.8084 16 7.29304 16H8.70352C9.18816 16 9.59927 15.6524 9.67949 15.1744L9.87001 14.0514C10.2477 13.9344 10.612 13.784 10.9596 13.6002L11.8855 14.262C12.0526 14.3823 12.2531 14.4458 12.4603 14.4458C12.7244 14.4458 12.9717 14.3422 13.1589 14.155L14.1549 13.159C14.4958 12.818 14.5426 12.2799 14.2619 11.8855L13.6001 10.9563C13.7839 10.6054 13.9377 10.2411 14.0513 9.86672L15.1743 9.67955C15.6523 9.59933 15.9999 9.18822 15.9999 8.70357V7.29643C16.0066 6.81178 15.659 6.40067 15.181 6.32045ZM15.1042 8.70357C15.1042 8.74702 15.0741 8.78379 15.0306 8.79047L13.6268 9.02444C13.4497 9.05452 13.3093 9.18488 13.2658 9.35534C13.1388 9.84667 12.945 10.3179 12.6843 10.7558C12.594 10.9095 12.6007 11.1001 12.7043 11.2471L13.5299 12.4103C13.5533 12.4437 13.55 12.4938 13.5199 12.5239L12.5238 13.5199C12.5004 13.5433 12.4771 13.5467 12.4603 13.5467C12.4403 13.5467 12.4236 13.54 12.4102 13.53L11.2504 12.7044C11.1067 12.6008 10.9128 12.5941 10.7591 12.6844C10.3212 12.9451 9.84995 13.1389 9.35862 13.2659C9.18482 13.3094 9.05447 13.4531 9.02773 13.6269L8.79042 15.0307C8.78374 15.0742 8.74697 15.1042 8.70352 15.1042H7.29638C7.25293 15.1042 7.21617 15.0742 7.20948 15.0307L6.97552 13.6269C6.94544 13.4498 6.81508 13.3094 6.64462 13.2659C6.16667 13.1423 5.70542 12.9517 5.27425 12.7044C5.20406 12.6643 5.12385 12.6442 5.04697 12.6442C4.95673 12.6442 4.86314 12.671 4.78627 12.7278L3.61644 13.5601C3.59973 13.5701 3.58302 13.5768 3.5663 13.5768C3.55293 13.5768 3.5262 13.5734 3.5028 13.55L2.50677 12.554C2.47669 12.5239 2.47335 12.4771 2.49675 12.4404L3.31897 11.2872C3.42258 11.1402 3.42927 10.9463 3.33902 10.7926C3.07832 10.3581 2.87778 9.88678 2.75077 9.39545C2.70397 9.22498 2.56359 9.09463 2.38979 9.06455L0.975971 8.8239C0.93252 8.81721 0.902439 8.78045 0.902439 8.737V7.32985C0.902439 7.2864 0.93252 7.24963 0.975971 7.24295L2.36974 7.00898C2.54688 6.9789 2.6906 6.84855 2.73406 6.67474C2.85772 6.18341 3.04824 5.70879 3.3056 5.27094C3.39584 5.11719 3.38582 4.92668 3.2822 4.78295L2.44995 3.61312C2.42656 3.57969 2.4299 3.52956 2.45998 3.49948L3.45601 2.50345C3.4794 2.48005 3.5028 2.47671 3.51951 2.47671C3.53957 2.47671 3.55628 2.48339 3.56965 2.49342L4.72276 3.31565C4.86983 3.41926 5.06368 3.42595 5.21743 3.3357C5.65194 3.07499 6.12321 2.87445 6.61454 2.74744C6.785 2.70065 6.91535 2.56027 6.94544 2.38646L7.18609 0.972634C7.19277 0.929183 7.22954 0.899102 7.27299 0.899102H8.68012C8.72357 0.899102 8.76034 0.929183 8.76702 0.972634L9.00099 2.36641C9.03107 2.54356 9.16142 2.68728 9.33523 2.73073C9.83992 2.85774 10.3212 3.05494 10.7691 3.31899C10.9229 3.40923 11.1134 3.40255 11.2604 3.29893L12.4135 2.47002C12.4303 2.46 12.447 2.45331 12.4637 2.45331C12.4771 2.45331 12.5038 2.45665 12.5272 2.48005L13.5232 3.47608C13.5533 3.50616 13.5566 3.55296 13.5332 3.58972L12.7077 4.74953C12.6041 4.89325 12.5974 5.08711 12.6876 5.24086C12.9483 5.67871 13.1422 6.14999 13.2692 6.64132C13.3126 6.81512 13.4564 6.94548 13.6302 6.97222L15.034 7.20953C15.0774 7.21621 15.1075 7.25298 15.1075 7.29643V8.70357H15.1042Z" fill="black"/>
<path d="M8.00222 4.54565C6.09708 4.54565 4.54956 6.09318 4.54956 7.99834C4.54956 9.9035 6.09708 11.451 8.00222 11.451C9.90737 11.451 11.4549 9.9035 11.4549 7.99834C11.4549 6.09318 9.90737 4.54565 8.00222 4.54565ZM8.00222 10.5486C6.59509 10.5486 5.452 9.40548 5.452 7.99834C5.452 6.59119 6.59509 5.4481 8.00222 5.4481C9.40936 5.4481 10.5525 6.59119 10.5525 7.99834C10.5525 9.40548 9.40936 10.5486 8.00222 10.5486Z" fill="black"/>
</svg>
