<svg width="40" height="28" viewBox="0 0 40 28" fill="none" xmlns="http://www.w3.org/2000/svg">
<path d="M32.7021 20.4731C31.7247 20.4731 30.7962 20.8662 30.0957 21.5771C29.3952 22.2963 29.0043 23.233 29.0043 24.2366C29.0043 25.2401 29.3871 26.1768 30.0957 26.8961C30.8043 27.6069 31.7247 28 32.7021 28C34.7058 28 36.3348 26.3106 36.3348 24.2366C36.3348 22.1625 34.7058 20.4731 32.7021 20.4731ZM32.7021 26.3274C31.5781 26.3274 30.6333 25.374 30.6333 24.2366C30.6333 23.0992 31.5781 22.1458 32.7021 22.1458C33.8098 22.1458 34.7058 23.0824 34.7058 24.2366C34.7058 25.3907 33.8098 26.3274 32.7021 26.3274ZM33.6469 7.93668C33.5003 7.7945 33.3048 7.71924 33.1012 7.71924H28.9228C28.4749 7.71924 28.1083 8.09558 28.1083 8.55556V15.4134C28.1083 15.8734 28.4749 16.2497 28.9228 16.2497H35.5528C36.0008 16.2497 36.3673 15.8734 36.3673 15.4134V10.822C36.3673 10.5878 36.2696 10.362 36.0986 10.2031L33.6469 7.93668ZM34.7383 14.5771H29.7373V9.38351H32.7835L34.7383 11.19V14.5771ZM12.8121 20.4731C11.8347 20.4731 10.9061 20.8662 10.2057 21.5771C9.50519 22.2963 9.11423 23.233 9.11423 24.2366C9.11423 25.2401 9.49705 26.1768 10.2057 26.8961C10.9143 27.6069 11.8347 28 12.8121 28C14.8157 28 16.4447 26.3106 16.4447 24.2366C16.4447 22.1625 14.8157 20.4731 12.8121 20.4731ZM12.8121 26.3274C11.688 26.3274 10.7432 25.374 10.7432 24.2366C10.7432 23.0992 11.688 22.1458 12.8121 22.1458C13.9198 22.1458 14.8157 23.0824 14.8157 24.2366C14.8157 25.3907 13.9198 26.3274 12.8121 26.3274ZM7.37935 21.5018H5.74221V19.2772C5.74221 18.8172 5.37569 18.4409 4.92771 18.4409C4.47974 18.4409 4.11321 18.8172 4.11321 19.2772V22.3381C4.11321 22.7981 4.47974 23.1744 4.92771 23.1744H7.37935C7.82733 23.1744 8.19385 22.7981 8.19385 22.3381C8.19385 21.8781 7.82733 21.5018 7.37935 21.5018ZM11.5089 16.9438C11.5089 16.4839 11.1423 16.1075 10.6944 16.1075H0.814498C0.366524 16.1075 0 16.4839 0 16.9438C0 17.4038 0.366524 17.7802 0.814498 17.7802H10.6944C11.1423 17.7802 11.5089 17.4122 11.5089 16.9438ZM2.46793 13.9247L12.3478 13.9833C12.7958 13.9833 13.1623 13.6153 13.1704 13.1553C13.1786 12.687 12.8121 12.3106 12.3641 12.3106L2.48422 12.2521C2.47607 12.2521 2.47607 12.2521 2.47607 12.2521C2.0281 12.2521 1.66158 12.6201 1.66158 13.08C1.65343 13.5484 2.01996 13.9247 2.46793 13.9247ZM4.12951 10.1278H14.0094C14.4573 10.1278 14.8239 9.75149 14.8239 9.29152C14.8239 8.83154 14.4573 8.4552 14.0094 8.4552H4.12951C3.68153 8.4552 3.31501 8.83154 3.31501 9.29152C3.31501 9.75149 3.68153 10.1278 4.12951 10.1278ZM39.6986 8.9988L33.8668 4.03943C33.7202 3.91398 33.541 3.84707 33.3456 3.84707H26.4875V0.836321C26.4875 0.376345 26.121 8.16719e-07 25.673 8.16719e-07H4.92771C4.47974 8.16719e-07 4.11321 0.376345 4.11321 0.836321V6.95819C4.11321 7.41816 4.47974 7.79451 4.92771 7.79451C5.37569 7.79451 5.74221 7.41816 5.74221 6.95819V1.67264H24.8666V21.5018H18.1877C17.7398 21.5018 17.3732 21.8781 17.3732 22.3381C17.3732 22.7981 17.7398 23.1744 18.1877 23.1744H28.1328C28.5807 23.1744 28.9473 22.7981 28.9473 22.3381C28.9473 21.8781 28.5807 21.5018 28.1328 21.5018H26.4956V5.51971H33.0605L38.371 10.0358L38.314 21.4851H37.4669C37.0189 21.4851 36.6524 21.8614 36.6524 22.3214C36.6524 22.7814 37.0189 23.1577 37.4669 23.1577H39.1203C39.5683 23.1577 39.9348 22.7897 39.9348 22.3298L40 9.65113C39.9919 9.40024 39.886 9.15771 39.6986 8.9988Z" fill="#1ABC9C"/>
</svg>
