<svg width="23" height="24" viewBox="0 0 23 24" fill="none" xmlns="http://www.w3.org/2000/svg">
<path d="M17.0711 20.5714H0.425926C0.190389 20.5714 0 20.7634 0 21C0 21.2366 0.190389 21.4286 0.425926 21.4286H17.0711C17.279 22.8801 18.5197 24 20.0185 24C21.6622 24 23 22.6543 23 21C23 19.3457 21.6622 18 20.0185 18C18.5197 18 17.279 19.1199 17.0711 20.5714Z" fill="white"/>
<path d="M8.38861 11.5714H0.425926C0.190389 11.5714 0 11.7634 0 12C0 12.2366 0.190389 12.4286 0.425926 12.4286H8.36178C8.53044 13.9723 9.83378 15.1774 11.4118 15.1774C12.9899 15.1774 14.2932 13.9723 14.4619 12.4286H22.5741C22.8096 12.4286 23 12.2366 23 12C23 11.7634 22.8096 11.5714 22.5741 11.5714H14.4351C14.1893 10.1143 12.929 9 11.4118 9C9.89468 9 8.63437 10.1143 8.38861 11.5714Z" fill="white"/>
<path d="M2.98148 0C1.33783 0 0 1.34571 0 3C0 4.65429 1.33783 6 2.98148 6C4.48031 6 5.72104 4.88014 5.92889 3.42857H22.5741C22.8096 3.42857 23 3.23657 23 3C23 2.76343 22.8096 2.57143 22.5741 2.57143H5.92889C5.72104 1.11986 4.48031 0 2.98148 0Z" fill="white"/>
</svg>
