<svg width="16" height="15" viewBox="0 0 16 15" fill="none" xmlns="http://www.w3.org/2000/svg">
<path fill-rule="evenodd" clip-rule="evenodd" d="M0 0H4.17383V1.36365V9.54541H13.4502L14.377 4.09094H6.95703V2.72729H14.6094H16.001L14.6094 10.9091H13.9121H13.2178H4.17383H3.47754H2.78223V1.36365H0V0ZM6.25977 13.6364C6.25977 14.3894 5.6377 15 4.86914 15C4.10059 15 3.47754 14.3894 3.47754 13.6364C3.47754 12.8832 4.10059 12.2727 4.86914 12.2727C5.6377 12.2727 6.25977 12.8832 6.25977 13.6364ZM11.8262 15C12.5947 15 13.2168 14.3894 13.2168 13.6364C13.2168 12.8832 12.5947 12.2727 11.8262 12.2727C11.0576 12.2727 10.4346 12.8832 10.4346 13.6364C10.4346 14.3894 11.0576 15 11.8262 15Z" fill="black"/>
</svg>
