<svg width="17" height="16" viewBox="0 0 17 16" fill="none" xmlns="http://www.w3.org/2000/svg">
<path fill-rule="evenodd" clip-rule="evenodd" d="M9.22901 0.52215C8.99928 -0.17405 8.00072 -0.17405 7.77099 0.52215L6.97846 2.92339C6.4647 4.4803 4.99333 5.53414 3.33327 5.53414H0.768245C0.0251311 5.53414 -0.28347 6.47223 0.318009 6.9025L2.38625 8.3819C3.73222 9.34472 4.29538 11.0536 3.78076 12.613L2.99097 15.0063C2.76111 15.7028 3.56899 16.2825 4.1701 15.8525L6.24932 14.3652C7.59179 13.4049 9.40821 13.4049 10.7507 14.3652L12.8299 15.8525C13.431 16.2825 14.2389 15.7028 14.009 15.0063L13.2192 12.613C12.7046 11.0536 13.2678 9.34472 14.6138 8.3819L16.682 6.9025C17.2835 6.47223 16.9749 5.53414 16.2318 5.53414H13.6667C12.0067 5.53414 10.5353 4.4803 10.0215 2.92338L9.22901 0.52215ZM8.74259 1.80755C8.66522 1.57721 8.33478 1.57721 8.25741 1.80755L7.59117 3.78994C7.07117 5.33694 5.60479 6.38126 3.95234 6.38126H1.76019C1.51148 6.38126 1.40928 6.6963 1.61194 6.83865L3.31455 8.03454C4.6851 8.99722 5.259 10.7289 4.72965 12.3041L4.08649 14.2176C4.00875 14.449 4.27604 14.6436 4.47733 14.5022L6.27627 13.2387C7.60726 12.3038 9.39273 12.3038 10.7237 13.2387L12.5227 14.5022C12.724 14.6436 12.9913 14.449 12.9135 14.2176L12.2704 12.3041C11.741 10.7289 12.3149 8.99722 13.6855 8.03454L15.3881 6.83865C15.5907 6.6963 15.4885 6.38126 15.2398 6.38126H13.0477C11.3952 6.38126 9.92883 5.33694 9.40883 3.78994L8.74259 1.80755Z" fill="#FF8500"/>
</svg>
