<svg width="244" height="20" viewBox="0 0 244 20" fill="none" xmlns="http://www.w3.org/2000/svg">
<path d="M10.15 1.5C10.4 1.5 10.5917 1.56667 10.725 1.7C10.875 1.83333 11 2.05 11.1 2.35L17.225 18.15C17.2417 18.2 17.25 18.2583 17.25 18.325C17.25 18.5083 17.1833 18.6667 17.05 18.8C16.9167 18.9333 16.7583 19 16.575 19H14.775C14.275 19 13.95 18.7917 13.8 18.375L12.725 15.6H4.825L3.75 18.375C3.6 18.7917 3.275 19 2.775 19H0.975C0.791667 19 0.633333 18.9333 0.5 18.8C0.366667 18.6667 0.3 18.5083 0.3 18.325C0.3 18.2583 0.308333 18.2 0.325 18.15L6.45 2.35C6.55 2.05 6.66667 1.83333 6.8 1.7C6.95 1.56667 7.15 1.5 7.4 1.5H10.15ZM8.775 5.35L6.025 12.475H11.525L8.775 5.35ZM30.9537 6C31.137 6 31.2954 6.06667 31.4287 6.2C31.562 6.33333 31.6287 6.49167 31.6287 6.675V18.325C31.6287 18.5083 31.562 18.6667 31.4287 18.8C31.2954 18.9333 31.137 19 30.9537 19H29.0537C28.8704 19 28.712 18.9333 28.5787 18.8C28.4454 18.6667 28.3787 18.5083 28.3787 18.325V13.95H22.5287V18.325C22.5287 18.5083 22.462 18.6667 22.3287 18.8C22.1954 18.9333 22.037 19 21.8537 19H19.9537C19.7704 19 19.612 18.9417 19.4787 18.825C19.3454 18.6917 19.2787 18.525 19.2787 18.325V6.675C19.2787 6.49167 19.3454 6.33333 19.4787 6.2C19.612 6.06667 19.7704 6 19.9537 6H21.8537C22.037 6 22.1954 6.06667 22.3287 6.2C22.462 6.33333 22.5287 6.49167 22.5287 6.675V10.95H28.3787V6.675C28.3787 6.49167 28.4454 6.33333 28.5787 6.2C28.712 6.06667 28.8704 6 29.0537 6H30.9537ZM44.9246 6C45.1079 6 45.2663 6.06667 45.3996 6.2C45.5329 6.33333 45.5996 6.49167 45.5996 6.675V8.325C45.5996 8.50833 45.5329 8.66667 45.3996 8.8C45.2663 8.93333 45.1079 9 44.9246 9H38.3246V18.325C38.3246 18.5083 38.2579 18.6667 38.1246 18.8C37.9913 18.9333 37.8329 19 37.6496 19H35.7496C35.5663 19 35.4079 18.9333 35.2746 18.8C35.1413 18.6667 35.0746 18.5083 35.0746 18.325V6.675C35.0746 6.49167 35.1413 6.33333 35.2746 6.2C35.4079 6.06667 35.5663 6 35.7496 6H44.9246ZM51.4928 14.4C51.4928 15.9333 51.1011 17.125 50.3178 17.975C49.5344 18.825 48.3594 19.25 46.7928 19.25H46.2178C46.0344 19.25 45.8761 19.1833 45.7428 19.05C45.6094 18.9167 45.5428 18.7583 45.5428 18.575V16.925C45.5428 16.7417 45.6094 16.5833 45.7428 16.45C45.8761 16.3167 46.0344 16.25 46.2178 16.25H46.6678C47.2844 16.25 47.7011 16.1 47.9178 15.8C48.1344 15.4833 48.2428 14.975 48.2428 14.275V6.675C48.2428 6.49167 48.3094 6.33333 48.4428 6.2C48.5761 6.06667 48.7344 6 48.9178 6H58.0928C58.2761 6 58.4344 6.06667 58.5678 6.2C58.7011 6.33333 58.7678 6.49167 58.7678 6.675V18.325C58.7678 18.5083 58.7011 18.6667 58.5678 18.8C58.4344 18.9333 58.2761 19 58.0928 19H56.1928C56.0094 19 55.8511 18.9333 55.7178 18.8C55.5844 18.6667 55.5178 18.5083 55.5178 18.325V9H51.4928V14.4ZM72.123 19C71.9397 19 71.7814 18.9333 71.648 18.8C71.5147 18.6667 71.448 18.5083 71.448 18.325V11.325L65.373 18.725C65.223 18.9083 65.0314 19 64.798 19H62.898C62.7147 19 62.5564 18.9333 62.423 18.8C62.2897 18.6667 62.223 18.5083 62.223 18.325V6.675C62.223 6.49167 62.2897 6.33333 62.423 6.2C62.5564 6.06667 62.7147 6 62.898 6H64.798C64.9814 6 65.1397 6.06667 65.273 6.2C65.4064 6.33333 65.473 6.49167 65.473 6.675V13.725L71.548 6.275C71.698 6.09167 71.8897 6 72.123 6H74.023C74.2064 6 74.3647 6.06667 74.498 6.2C74.6314 6.33333 74.698 6.49167 74.698 6.675V18.325C74.698 18.5083 74.6314 18.6667 74.498 18.8C74.3647 18.9333 74.2064 19 74.023 19H72.123ZM88.041 19C87.8577 19 87.6993 18.9333 87.566 18.8C87.4327 18.6667 87.366 18.5083 87.366 18.325V11.325L81.291 18.725C81.141 18.9083 80.9493 19 80.716 19H78.816C78.6327 19 78.4743 18.9333 78.341 18.8C78.2077 18.6667 78.141 18.5083 78.141 18.325V6.675C78.141 6.49167 78.2077 6.33333 78.341 6.2C78.4743 6.06667 78.6327 6 78.816 6H80.716C80.8993 6 81.0577 6.06667 81.191 6.2C81.3243 6.33333 81.391 6.49167 81.391 6.675V13.725L87.466 6.275C87.616 6.09167 87.8077 6 88.041 6H89.941C90.1243 6 90.2827 6.06667 90.416 6.2C90.5493 6.33333 90.616 6.49167 90.616 6.675V18.325C90.616 18.5083 90.5493 18.6667 90.416 18.8C90.2827 18.9333 90.1243 19 89.941 19H88.041ZM80.766 0.85C80.766 0.716667 80.8077 0.608333 80.891 0.524999C80.9743 0.425001 81.091 0.375 81.241 0.375H82.666C82.816 0.375 82.9327 0.425001 83.016 0.524999C83.0993 0.608333 83.141 0.716667 83.141 0.85C83.141 1.68333 83.5493 2.1 84.366 2.1C85.1827 2.1 85.591 1.68333 85.591 0.85C85.591 0.716667 85.6327 0.608333 85.716 0.524999C85.7993 0.425001 85.916 0.375 86.066 0.375H87.491C87.641 0.375 87.7577 0.425001 87.841 0.524999C87.9243 0.608333 87.966 0.716667 87.966 0.85C87.966 1.78333 87.6827 2.58333 87.116 3.25C86.566 3.91667 85.6493 4.25 84.366 4.25C83.0827 4.25 82.1577 3.91667 81.591 3.25C81.041 2.58333 80.766 1.78333 80.766 0.85ZM96.684 13.375C96.784 14.3417 97.109 15.0667 97.659 15.55C98.2257 16.0167 98.8923 16.25 99.659 16.25C100.409 16.25 100.967 16.1417 101.334 15.925C101.701 15.7083 102.042 15.3667 102.359 14.9C102.492 14.6833 102.617 14.5167 102.734 14.4C102.867 14.2833 103.017 14.225 103.184 14.225H105.084C105.267 14.225 105.426 14.2917 105.559 14.425C105.709 14.5583 105.776 14.7167 105.759 14.9C105.726 15.45 105.484 16.0667 105.034 16.75C104.584 17.4333 103.901 18.025 102.984 18.525C102.084 19.0083 100.976 19.25 99.659 19.25C98.4757 19.25 97.4257 18.9917 96.509 18.475C95.609 17.9583 94.8923 17.2667 94.359 16.4C93.8257 15.5167 93.5173 14.5583 93.434 13.525C93.4173 13.325 93.409 12.9917 93.409 12.525C93.409 12.0417 93.4173 11.7 93.434 11.5C93.5173 10.4667 93.8173 9.51667 94.334 8.65C94.8673 7.76667 95.5923 7.06667 96.509 6.55C97.4257 6.01667 98.4757 5.75 99.659 5.75C100.976 5.75 102.084 6 102.984 6.5C103.901 6.98333 104.584 7.56667 105.034 8.25C105.484 8.93333 105.726 9.55 105.759 10.1C105.776 10.2833 105.709 10.4417 105.559 10.575C105.426 10.7083 105.267 10.775 105.084 10.775H103.184C103.017 10.775 102.867 10.7167 102.734 10.6C102.617 10.4833 102.492 10.3167 102.359 10.1C102.042 9.63333 101.701 9.29167 101.334 9.075C100.967 8.85833 100.409 8.75 99.659 8.75C98.8923 8.75 98.2257 8.99167 97.659 9.475C97.109 9.94167 96.784 10.6583 96.684 11.625C96.6673 11.7917 96.659 12.0833 96.659 12.5C96.659 12.9167 96.6673 13.2083 96.684 13.375ZM111.738 18.325C111.738 18.5083 111.671 18.6667 111.538 18.8C111.404 18.9333 111.246 19 111.063 19H109.163C108.979 19 108.821 18.9333 108.688 18.8C108.554 18.6667 108.488 18.5083 108.488 18.325V6.675C108.488 6.49167 108.554 6.33333 108.688 6.2C108.821 6.06667 108.979 6 109.163 6H111.063C111.246 6 111.404 6.06667 111.538 6.2C111.671 6.33333 111.738 6.49167 111.738 6.675V10.625L116.338 6.425C116.521 6.29167 116.679 6.19167 116.813 6.125C116.946 6.04167 117.113 6 117.313 6H119.688C119.854 6 119.996 6.05833 120.113 6.175C120.229 6.29167 120.288 6.43333 120.288 6.6C120.288 6.78333 120.196 6.95 120.013 7.1L114.188 12.375L120.563 17.925C120.729 18.0917 120.813 18.25 120.813 18.4C120.813 18.5667 120.754 18.7083 120.638 18.825C120.521 18.9417 120.379 19 120.213 19H117.563C117.213 19 116.871 18.8583 116.538 18.575L111.738 14.4V18.325ZM127.802 5.75C129.519 5.75 130.877 6.2 131.877 7.1C132.894 8 133.402 9.29167 133.402 10.975V18.325C133.402 18.5083 133.335 18.6667 133.202 18.8C133.069 18.9333 132.91 19 132.727 19H130.827C130.644 19 130.485 18.9333 130.352 18.8C130.219 18.6667 130.152 18.5083 130.152 18.325V17.5C129.769 18.0333 129.235 18.4583 128.552 18.775C127.885 19.0917 127.077 19.25 126.127 19.25C124.727 19.25 123.619 18.8917 122.802 18.175C121.985 17.4417 121.577 16.5 121.577 15.35C121.577 14.2333 121.969 13.35 122.752 12.7C123.552 12.0333 124.66 11.575 126.077 11.325L130.152 10.625C130.152 9.99167 129.935 9.525 129.502 9.225C129.085 8.90833 128.519 8.75 127.802 8.75C127.419 8.75 127.102 8.80833 126.852 8.925C126.619 9.025 126.385 9.18333 126.152 9.4C125.902 9.63333 125.627 9.75 125.327 9.75H123.002C122.835 9.75 122.694 9.7 122.577 9.6C122.477 9.48333 122.435 9.35 122.452 9.2C122.552 8.68333 122.81 8.15833 123.227 7.625C123.66 7.09167 124.26 6.65 125.027 6.3C125.81 5.93333 126.735 5.75 127.802 5.75ZM130.152 13.2L126.752 13.8C126.085 13.9167 125.594 14.0917 125.277 14.325C124.977 14.5417 124.827 14.8417 124.827 15.225C124.827 15.5583 124.994 15.8167 125.327 16C125.677 16.1667 126.11 16.25 126.627 16.25C127.36 16.25 127.994 16.1167 128.527 15.85C129.06 15.5833 129.46 15.2417 129.727 14.825C130.01 14.3917 130.152 13.9333 130.152 13.45V13.2ZM147.36 6C147.543 6 147.701 6.06667 147.835 6.2C147.968 6.33333 148.035 6.49167 148.035 6.675V18.325C148.035 18.5083 147.968 18.6667 147.835 18.8C147.701 18.9333 147.543 19 147.36 19H145.46C145.276 19 145.118 18.9333 144.985 18.8C144.851 18.6667 144.785 18.5083 144.785 18.325V15.3H141.96L139.685 18.525C139.568 18.6583 139.451 18.775 139.335 18.875C139.218 18.9583 139.068 19 138.885 19H136.635C136.468 19 136.326 18.9417 136.21 18.825C136.093 18.7083 136.035 18.575 136.035 18.425C136.035 18.2917 136.068 18.175 136.135 18.075L138.61 14.65C137.876 14.2667 137.301 13.7333 136.885 13.05C136.485 12.3667 136.285 11.5583 136.285 10.625C136.285 9.15833 136.776 8.025 137.76 7.225C138.743 6.40833 140.018 6 141.585 6H147.36ZM141.66 9C140.893 9 140.343 9.13333 140.01 9.4C139.693 9.65 139.535 10.0667 139.535 10.65C139.535 11.2333 139.693 11.6583 140.01 11.925C140.343 12.175 140.893 12.3 141.66 12.3H144.785V9H141.66Z" fill="#16A085"/>
<path d="M170.894 12.8C171.094 12.8 171.261 12.8667 171.394 13C171.528 13.1167 171.586 13.275 171.569 13.475C171.503 14.4417 171.194 15.3667 170.644 16.25C170.111 17.1333 169.294 17.8583 168.194 18.425C167.111 18.975 165.753 19.25 164.119 19.25C161.886 19.25 160.136 18.625 158.869 17.375C157.603 16.1083 156.903 14.4333 156.769 12.35C156.736 11.5167 156.719 10.8167 156.719 10.25C156.719 9.68333 156.736 8.98333 156.769 8.15C156.903 6.06667 157.603 4.4 158.869 3.15C160.136 1.88333 161.886 1.25 164.119 1.25C165.753 1.25 167.111 1.53333 168.194 2.1C169.294 2.65 170.111 3.36667 170.644 4.25C171.194 5.13333 171.503 6.05833 171.569 7.025C171.586 7.225 171.528 7.39167 171.394 7.525C171.261 7.64167 171.094 7.7 170.894 7.7H168.869C168.703 7.7 168.544 7.64167 168.394 7.525C168.244 7.40833 168.153 7.25 168.119 7.05C167.986 6.3 167.586 5.66667 166.919 5.15C166.269 4.63333 165.336 4.375 164.119 4.375C162.886 4.375 161.928 4.725 161.244 5.425C160.578 6.125 160.211 7.03333 160.144 8.15C160.111 8.98333 160.094 9.68333 160.094 10.25C160.094 10.8167 160.111 11.5167 160.144 12.35C160.211 13.4667 160.578 14.375 161.244 15.075C161.928 15.775 162.886 16.125 164.119 16.125C165.336 16.125 166.278 15.8667 166.944 15.35C167.611 14.8333 168.011 14.2 168.144 13.45C168.178 13.25 168.261 13.0917 168.394 12.975C168.544 12.8583 168.703 12.8 168.869 12.8H170.894ZM185.934 6C186.118 6 186.276 6.06667 186.409 6.2C186.543 6.33333 186.609 6.49167 186.609 6.675V18.325C186.609 18.5083 186.543 18.6667 186.409 18.8C186.276 18.9333 186.118 19 185.934 19H184.034C183.851 19 183.693 18.9333 183.559 18.8C183.426 18.6667 183.359 18.5083 183.359 18.325V13.95H177.509V18.325C177.509 18.5083 177.443 18.6667 177.309 18.8C177.176 18.9333 177.018 19 176.834 19H174.934C174.751 19 174.593 18.9417 174.459 18.825C174.326 18.6917 174.259 18.525 174.259 18.325V6.675C174.259 6.49167 174.326 6.33333 174.459 6.2C174.593 6.06667 174.751 6 174.934 6H176.834C177.018 6 177.176 6.06667 177.309 6.2C177.443 6.33333 177.509 6.49167 177.509 6.675V10.95H183.359V6.675C183.359 6.49167 183.426 6.33333 183.559 6.2C183.693 6.06667 183.851 6 184.034 6H185.934ZM195.38 5.75C197.097 5.75 198.455 6.2 199.455 7.1C200.472 8 200.98 9.29167 200.98 10.975V18.325C200.98 18.5083 200.913 18.6667 200.78 18.8C200.647 18.9333 200.488 19 200.305 19H198.405C198.222 19 198.063 18.9333 197.93 18.8C197.797 18.6667 197.73 18.5083 197.73 18.325V17.5C197.347 18.0333 196.813 18.4583 196.13 18.775C195.463 19.0917 194.655 19.25 193.705 19.25C192.305 19.25 191.197 18.8917 190.38 18.175C189.563 17.4417 189.155 16.5 189.155 15.35C189.155 14.2333 189.547 13.35 190.33 12.7C191.13 12.0333 192.238 11.575 193.655 11.325L197.73 10.625C197.73 9.99167 197.513 9.525 197.08 9.225C196.663 8.90833 196.097 8.75 195.38 8.75C194.997 8.75 194.68 8.80833 194.43 8.925C194.197 9.025 193.963 9.18333 193.73 9.4C193.48 9.63333 193.205 9.75 192.905 9.75H190.58C190.413 9.75 190.272 9.7 190.155 9.6C190.055 9.48333 190.013 9.35 190.03 9.2C190.13 8.68333 190.388 8.15833 190.805 7.625C191.238 7.09167 191.838 6.65 192.605 6.3C193.388 5.93333 194.313 5.75 195.38 5.75ZM197.73 13.2L194.33 13.8C193.663 13.9167 193.172 14.0917 192.855 14.325C192.555 14.5417 192.405 14.8417 192.405 15.225C192.405 15.5583 192.572 15.8167 192.905 16C193.255 16.1667 193.688 16.25 194.205 16.25C194.938 16.25 195.572 16.1167 196.105 15.85C196.638 15.5833 197.038 15.2417 197.305 14.825C197.588 14.3917 197.73 13.9333 197.73 13.45V13.2ZM206.938 13.375C207.038 14.3417 207.363 15.0667 207.913 15.55C208.48 16.0167 209.146 16.25 209.913 16.25C210.663 16.25 211.221 16.1417 211.588 15.925C211.955 15.7083 212.296 15.3667 212.613 14.9C212.746 14.6833 212.871 14.5167 212.988 14.4C213.121 14.2833 213.271 14.225 213.438 14.225H215.338C215.521 14.225 215.68 14.2917 215.813 14.425C215.963 14.5583 216.03 14.7167 216.013 14.9C215.98 15.45 215.738 16.0667 215.288 16.75C214.838 17.4333 214.155 18.025 213.238 18.525C212.338 19.0083 211.23 19.25 209.913 19.25C208.73 19.25 207.68 18.9917 206.763 18.475C205.863 17.9583 205.146 17.2667 204.613 16.4C204.08 15.5167 203.771 14.5583 203.688 13.525C203.671 13.325 203.663 12.9917 203.663 12.525C203.663 12.0417 203.671 11.7 203.688 11.5C203.771 10.4667 204.071 9.51667 204.588 8.65C205.121 7.76667 205.846 7.06667 206.763 6.55C207.68 6.01667 208.73 5.75 209.913 5.75C211.23 5.75 212.338 6 213.238 6.5C214.155 6.98333 214.838 7.56667 215.288 8.25C215.738 8.93333 215.98 9.55 216.013 10.1C216.03 10.2833 215.963 10.4417 215.813 10.575C215.68 10.7083 215.521 10.775 215.338 10.775H213.438C213.271 10.775 213.121 10.7167 212.988 10.6C212.871 10.4833 212.746 10.3167 212.613 10.1C212.296 9.63333 211.955 9.29167 211.588 9.075C211.221 8.85833 210.663 8.75 209.913 8.75C209.146 8.75 208.48 8.99167 207.913 9.475C207.363 9.94167 207.038 10.6583 206.938 11.625C206.921 11.7917 206.913 12.0833 206.913 12.5C206.913 12.9167 206.921 13.2083 206.938 13.375ZM229.542 6C229.725 6 229.883 6.06667 230.017 6.2C230.15 6.33333 230.217 6.49167 230.217 6.675V8.325C230.217 8.50833 230.15 8.66667 230.017 8.8C229.883 8.93333 229.725 9 229.542 9H225.442V18.325C225.442 18.5083 225.375 18.6667 225.242 18.8C225.108 18.9333 224.95 19 224.767 19H222.867C222.683 19 222.525 18.9333 222.392 18.8C222.258 18.6667 222.192 18.5083 222.192 18.325V9H218.092C217.908 9 217.75 8.93333 217.617 8.8C217.483 8.66667 217.417 8.50833 217.417 8.325V6.675C217.417 6.49167 217.483 6.33333 217.617 6.2C217.75 6.06667 217.908 6 218.092 6H229.542ZM233.015 19C232.832 19 232.674 18.9333 232.54 18.8C232.407 18.6667 232.34 18.5083 232.34 18.325V6.675C232.34 6.49167 232.407 6.33333 232.54 6.2C232.674 6.06667 232.832 6 233.015 6H234.915C235.099 6 235.257 6.06667 235.39 6.2C235.524 6.33333 235.59 6.49167 235.59 6.675V8.9H238.165C239.249 8.9 240.207 9.11667 241.04 9.55C241.89 9.96667 242.549 10.5583 243.015 11.325C243.482 12.075 243.715 12.95 243.715 13.95C243.715 14.95 243.482 15.8333 243.015 16.6C242.549 17.35 241.89 17.9417 241.04 18.375C240.207 18.7917 239.249 19 238.165 19H233.015ZM237.74 16C238.657 16 239.349 15.8583 239.815 15.575C240.299 15.275 240.54 14.7333 240.54 13.95C240.54 13.1667 240.299 12.6333 239.815 12.35C239.349 12.05 238.657 11.9 237.74 11.9H235.59V16H237.74Z" fill="black"/>
</svg>
