<svg width="144" height="109" viewBox="0 0 144 109" fill="none" xmlns="http://www.w3.org/2000/svg">
<path d="M123.741 21.1922C119.023 16.118 112.845 12.2923 105.209 9.71653C97.5731 7.1407 89.372 6.18019 80.607 6.83453C71.8421 7.48886 63.8777 9.65618 56.7143 13.3368C49.551 17.0175 44.0181 21.7166 40.1153 27.4352C36.2123 33.1535 34.5018 39.1954 34.9831 45.5616C35.3979 51.0494 37.4116 56.07 41.0251 60.62C44.6386 65.1702 49.3877 68.8635 55.2741 71.6985C54.9891 73.191 54.6273 74.6158 54.1879 75.9744C53.7487 77.3315 53.3454 78.4472 52.978 79.3213C52.6102 80.1943 52.0976 81.1713 51.438 82.2499C50.7796 83.3298 50.2775 84.0943 49.932 84.5434C49.587 84.9925 49.0199 85.7329 48.2305 86.7674C47.4422 87.8007 46.9329 88.4745 46.7038 88.786C46.6688 88.8074 46.5378 88.9817 46.31 89.313C46.0823 89.6422 45.9679 89.8062 45.9679 89.8062L45.6819 90.3243C45.5227 90.6107 45.4551 90.7911 45.4783 90.862C45.502 90.9345 45.48 91.12 45.4122 91.4187C45.3444 91.7187 45.3702 91.9377 45.4888 92.0758L45.493 92.131C45.6838 92.7419 46.0089 93.2239 46.469 93.5758C46.929 93.9265 47.4293 94.0823 47.9676 94.0421L48.2373 94.0219C50.5506 93.5543 52.5676 93.0002 54.2887 92.3564C63.5153 89.2027 71.4429 84.1588 78.0711 77.2246C80.7871 77.3162 83.4026 77.2679 85.9168 77.0802C94.6817 76.4259 102.647 74.2587 109.81 70.5771C116.973 66.8961 122.506 62.1978 126.408 56.4797C130.312 50.7618 132.022 44.7193 131.541 38.3531C131.06 31.9878 128.46 26.2669 123.741 21.1922ZM120.071 53.2835C116.642 57.8803 111.837 61.689 105.653 64.7074C99.4691 67.7251 92.7128 69.509 85.3849 70.0561C83.194 70.2196 80.8482 70.2478 78.3474 70.1395L75.2512 70.0405L73.0919 72.2995C68.9729 76.581 64.2696 80.0774 58.9838 82.7902C60.4119 79.7039 61.4313 76.4632 62.0422 73.0701L63.0986 67.6923L58.2036 65.2992C53.3289 62.9388 49.4676 59.9988 46.6179 56.4767C43.7686 52.9557 42.1896 49.145 41.8798 45.0475C41.5009 40.035 43.0252 35.2304 46.4524 30.6328C49.8808 26.0356 54.6858 22.2273 60.87 19.2086C67.0541 16.1896 73.8093 14.4057 81.1378 13.8586C88.4657 13.3115 95.413 14.072 101.981 16.1387C108.549 18.2056 113.873 21.2575 117.955 25.2942C122.035 29.3312 124.264 33.8558 124.643 38.868C125.022 43.8802 123.498 48.6859 120.071 53.2835Z" fill="#1ABC9C"/>
<path d="M136.938 76.37L131.154 76.2746L130.878 92.9767L136.662 93.0721L136.938 76.37ZM104.872 91.1557C104.846 92.6867 106.127 93.9608 107.718 93.987L116.828 94.1373L117.265 100.549C117.263 100.688 117.26 100.827 117.258 100.966C117.249 101.523 117.529 102.084 117.811 102.507L120.572 103.945L127.086 94.8633C127.672 94.4553 127.972 93.7642 127.986 92.9291L128.216 79.0106C128.241 77.4795 126.96 76.2054 125.369 76.1792L112.355 75.9646C111.198 75.9455 110.174 76.6247 109.724 77.5919L105.223 87.4025C105.074 87.6785 104.916 88.4913 104.911 88.7696L104.872 91.1557Z" fill="#DC7373"/>
<path d="M14.0438 63.9907L14.9368 66.8547L17.8008 65.9617L27.6947 62.8768L30.5587 61.9838L29.6657 59.1197L29.2188 57.6864C31.3059 59.8587 34.564 60.7349 37.5885 59.7918L59.8496 52.8506C62.9758 51.8759 65.1394 49.1483 65.4977 46.0907L65.4986 46.0829L65.4995 46.0751L67.6424 26.9205C67.7459 26.2003 67.6731 25.3746 67.6252 24.9267C67.5679 24.3905 67.4606 23.6619 67.295 23.1309L66.0224 19.0497C64.6808 14.747 60.0322 12.5507 55.8338 13.8598L42.8827 17.898L39.6281 9.90649L39.5545 9.67045L39.4432 9.31334C38.8677 7.46777 37.4739 6.19841 36.6194 5.53135L36.0138 5.0585L35.2554 4.93503L29.7515 4.03899L27.1841 3.621L26.4066 6.10338L20.5528 24.7941C19.9718 25.7351 19.6791 26.7508 19.6044 27.7685L17.0008 28.5803L7.10698 31.6653L4.24298 32.5583L5.136 35.4223L14.0438 63.9907Z" fill="#7C96DB" stroke="#F9F8F3" stroke-width="6"/>
</svg>
